<svg width="223" height="357" viewBox="0 0 223 357" fill="none" xmlns="http://www.w3.org/2000/svg">
<path d="M79.2165 182.191C141.096 182.191 158.106 136.337 158.106 91.2214C158.106 45.6133 141.096 0.991211 79.2165 0.991211C17.5838 0.991211 0.32666 45.6133 0.32666 91.2214C0.32666 136.337 17.5838 182.191 79.2165 182.191ZM79.2165 179.233C40.5112 179.233 20.0491 149.403 20.0491 91.2214C20.0491 33.5333 40.5112 4.44263 79.2165 4.44263C118.168 4.44263 138.384 33.5333 138.384 91.2214C138.384 149.403 118.168 179.233 79.2165 179.233Z" fill="white"/>
<path d="M222.006 178V4.93571H219.047L172.946 26.6304V29.5888L202.283 13.8108V178H222.006Z" fill="white"/>
<path d="M76.9796 229.779C52.5006 171 33.0005 173.5 31.0008 168C35.0006 165.5 90.5006 206.5 143.001 148C93.8314 219.5 100.713 221.695 98.5006 229.779C93.227 249.052 91.8764 305.691 101.501 327.856C109.201 345.588 93.8314 352.431 93.8314 352.431C81.9643 356.358 65.5732 342.551 76.4254 327.856C87.2776 313.16 87.4875 255.011 76.9796 229.779Z" fill="white"/>
</svg>
