<svg width="1820" height="931" viewBox="0 0 1820 931" fill="none" xmlns="http://www.w3.org/2000/svg">
<path d="M580.058 508.357C580.058 508.357 613.961 448.918 656.67 490.875C656.67 490.875 685.369 521.676 634.144 553.752C582.918 585.829 638.088 599.036 638.088 599.036C638.088 599.036 701.823 599.046 698.319 656.236C694.814 713.426 688.097 732.903 649.644 758.253C611.225 783.606 656.69 832.373 667.542 835.727C678.427 839.118 669.199 915.403 630.535 897.223C591.871 879.043 572.954 863.19 591.857 818.21C610.761 773.23 616.941 754.179 607.411 731.754C597.881 709.328 560.366 622.959 564.997 594.86C569.593 566.758 564.706 551.8 580.058 508.357Z" fill="#1D1D1B"/>
<path d="M601.393 390.297C601.393 390.297 650.053 321.525 657.1 359.944C664.147 398.363 661.152 402.988 644.505 412.039C627.894 421.093 596.679 426.333 601.393 390.297Z" fill="#1D1D1B"/>
<path d="M1656.36 409.316C1656.36 409.316 1686.95 336.679 1741.56 378.785C1741.56 378.785 1778.62 410.06 1724.45 453.789C1670.28 497.518 1735.19 505.032 1735.19 505.032C1735.19 505.032 1808.08 496.276 1811.94 562.159C1815.8 628.043 1810.8 651.241 1770.31 685.52C1729.86 719.799 1788.57 769.314 1801.44 771.656C1814.35 774.037 1814.29 862.544 1767.58 847.073C1720.86 831.601 1697.05 816.074 1712.48 762.036C1727.91 707.997 1732.35 685.36 1718.37 661.026C1704.39 636.692 1649.6 543.082 1651.03 510.312C1652.42 477.543 1644.78 461.109 1656.36 409.316Z" fill="#1D1D1B"/>
<path d="M1664.51 271.371C1664.51 271.371 1710.7 186.03 1724.04 228.996C1737.39 271.962 1734.6 277.662 1716.81 290.303C1699.05 302.942 1664.08 313.229 1664.51 271.371Z" fill="#1D1D1B"/>
<path d="M929.058 350.867C929.058 350.867 956.619 370.112 920.376 391.148C884.133 412.206 897.354 465.915 935.483 424.537C935.483 424.537 960.017 391.238 970.608 384.211C979.896 378.034 993.979 342.877 965.417 315.419C936.856 287.96 896.679 265.694 854.175 300.425C811.67 335.157 783.784 367.516 782.131 411.468C780.479 455.397 784.738 512.619 785.437 515.797C786.135 518.975 808.574 609.116 817.792 618.649C827.01 628.182 868.816 687.217 926.684 624.109C926.684 624.109 944.165 581.657 995.166 581.411C995.166 581.411 1036.25 559.838 985.017 558.697C985.017 558.697 961.879 556.437 929.268 584.813C896.679 613.189 855.339 604.573 845.888 592.086C836.437 579.598 822.518 559.167 821.098 526.002C819.678 492.859 821.796 407.708 834.319 385.912C846.819 364.115 884.924 313.785 929.058 350.867Z" fill="#1D1D1B"/>
<path d="M1425.47 150.506C1425.47 150.506 1458.54 121.481 1425.47 111.072C1392.4 100.664 1360.51 85.6299 1413.42 65.1988C1466.32 44.7677 1492.01 99.5983 1492.01 104.27C1492.01 108.918 1497.05 132.592 1478.4 165.903C1459.72 199.237 1426.65 236.153 1465.57 242.956C1465.57 242.956 1485.4 217.877 1507.57 207.468C1529.75 197.06 1544.91 161.232 1545.31 158.375C1545.71 155.518 1594.33 144.043 1595.88 165.903C1597.44 187.763 1566.71 189.191 1560.88 198.148C1555.05 207.105 1457.78 277.719 1463.23 280.576C1468.68 283.433 1511.7 264.136 1542.06 300.689C1572.41 337.243 1540.2 346.699 1543 386.7C1545.81 426.7 1524.79 465.408 1582.67 481.327C1640.56 497.245 1620.48 507.132 1620.48 507.132C1620.48 507.132 1563.07 514.864 1546.73 504.547C1530.38 494.229 1515.92 497.245 1513.12 459.83C1510.31 422.414 1508.45 332.527 1481.84 326.926C1481.84 326.926 1456.63 341.121 1456.16 391.87C1455.68 442.619 1444.48 467.993 1437.03 481.327C1429.57 494.66 1401.08 545.84 1396.88 545.84C1392.68 545.84 1381.48 558.312 1377.75 517.88C1377.75 517.88 1424.43 430.147 1424.9 422.414C1425.37 414.682 1440.78 345.429 1422.1 283.932C1422.05 283.932 1405.09 186.085 1425.47 150.506Z" fill="#1D1D1B"/>
<path d="M97.2686 47.8626C97.2686 47.8626 138.388 37.8885 131.721 75.8878C125.054 113.887 159.845 95.8098 160.749 93.3463C161.652 90.8828 178.116 70.2534 152.151 63.5891C152.151 63.5891 140.017 59.9324 139.898 39.915C139.78 19.8976 117.433 3.35279 97.6017 13.3788C77.7703 23.4048 45.2399 48.5448 42.0452 74.3376C39.2519 96.9049 34.4087 115.322 61.7765 147C65.6934 151.531 70.2615 156.317 75.5813 161.431C75.5813 161.431 137.062 185.885 156.775 221.303C161.752 230.256 166.56 238.972 164.104 249.269C164.104 249.269 152.171 288.747 93.7671 283.466C93.7671 283.466 70.4549 282.335 67.978 259.548C67.978 259.548 102.467 228.961 62.9497 225.034C62.9497 225.034 36.7047 225.313 46.8882 253.866C46.8882 253.866 40.4387 310.56 87.1381 317.421C87.1381 317.421 134.531 338.246 156.919 322.376C179.32 306.521 210.531 283.468 212.529 245.619C214.528 207.77 193.921 174.926 169.986 164.457C169.986 164.457 162.194 149.135 110.451 133.13C96.0704 128.682 87.7577 122.49 80.0722 113.866C64.5095 96.4194 62.8919 77.1286 70.3365 65.4664C72.4452 62.1682 73.3829 58.8897 76.5817 56.1729L97.2686 47.8626Z" fill="#1D1D1B"/>
<path d="M286.202 539.914C286.202 539.914 281.516 514.073 332.713 515.732C383.91 517.391 413.532 518.019 431.384 529.351C449.237 540.683 507.226 565.948 477.605 620.022C477.605 620.022 462.349 659.656 396.986 644.903C396.986 644.903 317.984 615.15 332.386 670.167C332.386 670.167 376.246 767.717 378.026 772.065C379.806 776.413 365.15 866.525 307.65 854.879C307.65 854.879 275.959 847.947 259.668 837.471C243.377 826.995 194.214 855.699 191.363 880.021C188.511 904.343 167.353 926.605 167.353 926.605C167.353 926.605 137.46 946.911 132.029 896.591C126.599 846.271 203.022 817.304 203.022 817.304L279.246 799.966C279.246 799.966 308.958 790.905 305.235 754.238C301.512 717.589 298.715 670.499 288.163 649.809C277.611 629.119 286.202 539.914 286.202 539.914ZM360.191 588.401C372.723 623.304 395.806 599.681 395.806 599.681C418.653 550.565 377.899 563.014 377.899 563.014C356.523 573.595 360.191 588.401 360.191 588.401Z" fill="#1D1D1B"/>
<path d="M1112.82 147.048C1112.82 147.048 1086.86 153.397 1084.43 148.962C1082.01 144.527 1075.86 137.967 1088.61 120.202C1101.38 102.437 1111.92 98.6324 1127.12 106.663C1142.3 114.693 1178.6 139.648 1171.78 183.651C1164.95 227.655 1151.31 279.899 1151.31 285.174C1151.31 290.473 1132.83 339.332 1190.25 343.558C1247.68 347.783 1258.02 390.946 1262.2 411.676C1266.38 432.405 1285 485.396 1249.14 547.024C1249.14 547.024 1229.88 576.788 1241.27 612.107C1241.27 612.107 1237.04 665.261 1199.26 646.4C1199.26 646.4 1171.41 628.962 1191.03 593.245C1210.65 557.529 1205.38 560.984 1205.38 560.984C1205.38 560.984 1199.89 557.132 1210.87 519.595C1221.84 482.058 1233.23 408.617 1197.56 404.976C1161.89 401.334 1150.92 406.61 1145.24 457.92C1145.24 457.92 1146.5 510.467 1146.09 514.319C1145.67 518.171 1134.89 562.408 1125.2 568.897C1125.2 568.897 1120.57 573.566 1125.2 580.266C1129.84 586.966 1131.1 654.523 1103.88 652.889C1076.66 651.255 1034.03 642.735 1068.85 599.525C1103.67 556.315 1128.99 527.508 1123.29 474.751C1117.58 421.994 1108.3 319.957 1108.3 319.957C1108.3 319.957 1109.57 220.348 1110.2 215.259C1110.83 210.193 1104.71 185.029 1117.36 174.08C1130.01 163.132 1139.26 152.3 1112.82 147.048Z" fill="#1D1D1B"/>
</svg>
